# xmcd
#
# Track frame offsets:
#        150
#        14326
#        28552
#        41445
#        53492
#        69270
#        84285
#        99576
#        112917
#        127340
#        140583
#        154730
#        166381
#        179646
#        192520
#        206680
#        220887
#        235020
#        248748
#        262734
#        276075
#        288314
#        301204
#        313139
#        325529
#        338234
#
# Disc length: 4642 seconds
#
# Revision: 1
# Processed by: cddbd v1.5.2PL0 Copyright (c) Steve Scherf et al.
# Submitted via: jack 3.1.1
#
DISCID=6d12201a
DTITLE=Various Artist - You Got to Give Me Some of It:  55 Risqué Blu
DTITLE=es and R&B Classics, 1928-1954 CD1
DYEAR=2015
DGENRE=Risqué
TTITLE0=Lonnie Johnson and Victoria Spivey - Furniture Man, Part One
TTITLE1=Lonnie Johnson and Victoria Spivey - Furniture Man, Part Two
TTITLE2=Georgia Tom and Jane Lucas - Terrible Operation Blues
TTITLE3=George Hannah - The Boy in the Boat
TTITLE4=Lizzie Miles - My Man O' War
TTITLE5=Lonnie Johnson - Wipe it Off
TTITLE6=The Mississippi Sheiks - Driving That Thing
TTITLE7=Bo Carter - My Pencil Won't Write No More
TTITLE8=The The Mississippi Sheiks - Bed Spring Poker
TTITLE9=Lonnie Johnson - Best Jockey in Town
TTITLE10=Bo Carter - Banana in Your Fruit Basket
TTITLE11=Napoleon Fletcher - She Showed it All
TTITLE12=Hunter and Jenkins - Meat Cuttin' Blues
TTITLE13=Josh White - Sissy Man
TTITLE14=Lucille Bogan - Shave 'Em Dry
TTITLE15=Buddy Moss - You Got to Give Me Some of It
TTITLE16=Bernice Edwards - Butcher Shop Blues
TTITLE17=Lil Johnson - Sam the Hot Dog Man
TTITLE18=The Harlem Hamfats - Let's Get Drunk and Truck
TTITLE19=Lil Johnson - My Stove's in Good Condition
TTITLE20=Victoria Spivey - One Hour Mama
TTITLE21=Barrel House Annie - If it Don't Fit, Don't Force It
TTITLE22=Washboard Sam - I'm Gonna Keep My Hair Parted
TTITLE23=Blind Boy Fuller - What's That Smells Like Fish
TTITLE24=Lillie Mae Kirkham - He's Just My Size
TTITLE25=Slim Gaillard - That Dirty Rooster (Fuck Off)
EXTD=
EXTT0=
EXTT1=
EXTT2=
EXTT3=
EXTT4=
EXTT5=
EXTT6=
EXTT7=
EXTT8=
EXTT9=
EXTT10=
EXTT11=
EXTT12=
EXTT13=
EXTT14=
EXTT15=
EXTT16=
EXTT17=
EXTT18=
EXTT19=
EXTT20=
EXTT21=
EXTT22=
EXTT23=
EXTT24=
EXTT25=
PLAYORDER=
